<?xml version="1.0" encoding="UTF-8"?>
<svg viewBox="0 0 571.9 633.33" xmlns="http://www.w3.org/2000/svg">
 <g fill-rule="evenodd">
  <path d="m521.43 74.157c0.14502 27.715-15.156 52.254-31.323 70.009-23.385 25.478-59.327 41.934-87.764 55.357 48.067-4.186 109.34-16.961 135.76-53.264 13.208-18.188 27.426-45.903 22.951-75.206-3.825-25.261-29.808-40.273-57.379-39.696 7.507 13.93 17.611 23.096 17.755 42.8zm-266.25 192.2c2.598 2.237 4.475 10.754 8.299 8.3-5.701-7.361 1.372-17.466 1.083-26.055 22.374-25.839 50.738-43.017 82.495-59.544 31.396-16.455 65.102-29.808 89.785-53.265 0.21698-1.299 1.588-2.165-1.083-2.093-54.853 44.894-176.39 37.964-180.58 132.66zm-61.638-20.93c-34.644 7.507-95.774 4.619-123.2 20.931-19.776 16.455 3.104 28.148 11.476 43.81 8.372 15.734 13.568 35.582 19.848 53.265 6.352 17.899 12.27 36.448 18.838 54.348 9.815 27.138 20.858 54.131 26.055 83.506 3.537 19.775 0.938 37.098 13.568 45.975 31.035 21.797 103.86 14.724 137.85 1.011 4.547-10.394 9.094-20.786 10.393-34.428 21.292-0.50494 23.962-23.456 35.51-35.51 5.702-5.99 17.178-11.836 26.128-18.837 24.25-18.91 57.956-48.357 60.554-84.589 1.443-20.064-6.856-44.531-25.044-52.182-35.077-14.796-27.932 29.88-40.707 40.706 2.382-16.672 8.806-29.447 8.301-49.078-0.64999-5.197-9.527-2.237-10.394-7.29 9.311-9.599 29.592-7.578 27.138-26.127-1.371-10.177-19.126-18.26-33.417-22.951-24.034-7.867-49.367-10.683-77.299-9.383-4.908 3.753-9.671 7.723-10.393 15.661 24.611 4.908 58.389 6.352 83.506 7.29-18.982-7.866-45.831-7.794-67.845-12.558 31.829 0.64798 63.875 2.309 80.402 16.744-24.034 23.673-80.186 23.096-130.56 20.858-36.736-1.588-89.496 1.443-121.11-8.372-8.806-2.671-23.963-7.29-17.756-19.776 4.259 0.289 4.187 7.29 9.455 8.3 3.465 0.72299 14.579-4.835 20.858-6.279 23.673-5.124 52.615-3.464 75.134-6.207-1.229-3.465 0.50301-20.498-7.292-18.838zm278.81-253.76c10.682 25.478-1.299 60.915-10.465 72.029-22.303 27.066-56.802 44.1-100.25 56.441-20.425 5.773-42.077 9.311-61.564 16.672-31.829 12.053-68.927 30.313-82.495 58.533-12.919 26.921-24.034 84.732 10.465 91.878 0.217-7.939-4.402-13.136-5.268-21.94-3.32-33.994 10.609-59.256 26.127-76.217 19.486-15.229 44.748-21.652 74.122-27.138 40.707-7.65 81.702-18.981 110.64-37.603 16.022-10.32 27.715-22.879 44.893-33.417-10.177 33.345-36.015 50.955-63.658 67.845-14.651 9.021-30.024 19.053-43.882 26.127-14.435 7.361-33.705 13.135-45.902 21.94-3.681 2.671-10.682 8.372-8.372 10.466 78.381-21.075 181.66-45.037 190.03-134.75 1.516-16.527-0.43298-27.715-7.289-35.51-2.454 12.559-5.99 29.52-14.651 32.406 5.052-20.786 20.064-46.913 11.476-71.02-5.053-14.291-17.972-25.188-31.323-31.396-1.011 0-1.228-0.794-2.094-1.011 3.75 7.509 7.503 11.046 9.453 15.665zm-382.16 595.29c31.323 17.466 89.353 24.25 143.05 21.94 33.777-1.516 72.318 1.732 94.981-13.568-76.36 13.496-170.69 2.454-238.03-8.372zm-6.279-294.54c8.517 6.641 40.273 10.754 49.079 5.269-27.21 0.072052-43.088-11.259-55.357-26.127h-2.021c-1.805 6.5671 3.175 16.817 8.299 20.858zm53.265 24.034c54.564 7.29 132.94 11.043 178.56-3.104-77.587 5.196-172.86 6.496-228.65-15.662 4.618 16.384 30.457 16.168 50.088 18.766zm-27.137 13.57c20.569 3.3919 48.356 5.269 69.937 4.1859-17.25-10.249-49.151-5.846-69.937-12.559v8.3731zm1.01 15.661c15.301 5.99 38.613 3.8969 59.544 4.187-2.888-9.2381-12.847-4.98-21.94-5.197-12.054-0.36005-28.365-6.64-37.604-7.289v8.299zm257.95 96.136c14.579-22.086 51.604-40.923 47.996-77.299-0.72202-7.507-5.63-15.301-11.476-16.745-26.488-6.4231-27.065 26.922-45.976 31.324-11.692 38.758-32.695 73.762-41.717 111.8 12.415-21.002 26.345-40.489 51.173-49.078zm-253.77-81.485c15.085 9.1659 39.553 2.671 61.638 4.187-14.29-9.3831-42.583-4.764-61.638-9.3831v5.1961zm5.27 20.859c20.281-2.0211 47.707 3.825 61.564-2.093-18.982-5.053-45.325-2.671-63.658-8.3-0.721 4.835 1.588 6.7121 2.094 10.393zm6.207 16.745c20.281-0.43399 39.623 2.5251 56.439 0-14.29-8.445-39.479-5.8469-59.543-8.3729-0.86599 4.691 2.454 5.197 3.104 8.3729zm6.279 16.672c14.074-0.50507 38.107 5.4129 46.985-3.104-15.878-1.8771-36.593-4.475-51.172-4.1871 2.238 1.5881 3.032 4.6201 4.187 7.2911zm6.28 17.754c13.857-2.165 36.664 4.691 43.881-4.187-12.846-3.825-34.282-4.691-46.984-5.196 1.731 2.455 2.669 5.6301 3.103 9.3831zm6.279 16.745c14.506 2.093 32.479 1.083 45.902-1.082-9.455-9.889-34.5-0.93799-47.996-8.3009-0.505 4.3309 3.031 4.5469 2.094 9.3829zm11.474 20.858c16.313-2.0929 38.253 1.3711 47.996-7.289-16.744-1.6599-36.809-0.071991-52.182-3.1759-0.72099 5.629 3.104 6.712 4.186 10.465zm3.104 15.662c15.301 0.57706 39.841 2.598 49.079-6.2789-15.157-2.1651-35.149 0.36093-50.089-2.0931-2.382 2.5251 2.31 3.8971 1.01 8.372zm3.176 14.651c12.631 4.402 35.943 4.979 44.893-3.176-14.29-2.093-30.097-2.599-44.893-4.114v7.29zm2.093 12.487c9.455 7.145 37.675 9.671 49.078 2.093-13.496-4.908-33.056-3.825-49.078-6.207v4.114zm0 21.94c19.054 6.496 56.584 8.878 81.412 5.269 4.619-0.72198 8.806-1.804 11.477-5.269-35.438 0-68.566-2.454-96.064-10.393-0.506 5.052 3.248 5.774 3.175 10.393zm231.75-168.09c-21.219 14.651-38.901 32.768-42.799 64.74 13.208-4.9069 22.879-13.28 32.334-21.94 0.72202-6.929 5.196-10.177 10.465-12.559 3.393-8.3 10.61-17.61 7.29-29.23-3.608 0.86603-3.9691-1.515-7.29-1.011z"/>
  <path d="m371.64 530.34c13.353 1.877 25.694 4.908 36.016 9.96-25.55 4.836-54.853-14.651-76.288-1.082 17.971 6.135 44.098 3.969 59.472 12.558-20.065 4.908-45.903-8.805-59.472 4.114 11.403 2.887 25.188 3.464 35.51 7.361-12.631 5.485-37.964-1.804-48.068 6.279 7.289 6.279 21.436 1.371 32.406 2.094-1.443 7.578-13.785 4.33-20.858 6.278 37.819 2.021 90.29-9.382 112.74-30.313 0.21701-5.341-4.114-6.352-4.187-11.476 6.641 2.31 10.754 9.815 8.372 18.765-2.237 8.1559-24.033 15.373-37.603 18.838-50.594 12.919-120.46 23.384-187.22 23.096v0.43298c-60.049-1.731-120.75-11.187-166.07-22.879-13.568-3.465-35.365-10.682-37.531-18.766-2.525-8.949 1.66-16.455 8.301-18.765-0.072001 5.124-4.33 6.063-4.187 11.403 22.446 21.004 74.917 32.408 112.74 30.315-7.073-1.877-19.487 1.371-20.858-6.279 10.971-0.72198 25.189 4.258 32.334-2.094-10.032-8.011-35.365-0.79401-47.924-6.207 10.249-3.969 24.034-4.475 35.438-7.361-13.568-12.991-39.334 0.79401-59.471-4.114 15.445-8.589 41.572-6.495 59.471-12.558-21.436-13.569-50.738 5.846-76.216 1.01 21.725-10.609 52.543-12.197 83.578-13.568 0.28801-19.776-23.096-17.178-40.778-15.662-30.818 2.599-73.474 11.548-89.785 21.941-5.341 3.464-11.332 11.98-11.476 17.755-0.794 22.951 35.726 30.602 56.368 37.603 19.92 6.712 37.387 10.609 58.461 13.568 12.053 1.66 22.663 6.856 34.428 8.301 18.837 2.525 44.242 1.01 62.719 4.258 5.485 0.93799 10.971 1.371 16.672 1.516l-0.144-0.649c8.806 0.21698 17.321-0.14502 25.55-1.588 18.477-3.176 43.882-1.732 62.719-4.114 11.765-1.588 22.375-6.712 34.428-8.372 21.075-3.031 38.541-6.929 58.461-13.568 20.642-6.929 57.234-14.651 56.368-37.603-0.14499-5.847-6.063-14.363-11.476-17.755-12.559-8.084-40.634-15.157-66.978-19.199-10.538-1.588-31.829-6.351-35.582 8.445-2.454 9.671 13.641 7.578 18.909 7.938 0.21701 0.071045 0.50601 0.071045 0.72202 0.143z"/>
 </g>
</svg>
